
<svg width="34" height="34" viewBox="0 0 34 34" fill="none" xmlns="http://www.w3.org/2000/svg">
<path d="M12.7679 10.3888C8.87513 6.60116 11.5566 0 16.988 0C22.4193 0 25.1008 6.60116 21.208 10.3888L16.988 14.4947L12.7679 10.3888Z" fill="#C3E7FA"/>
<path d="M12.7925 23.6112C8.89967 27.3988 11.5811 34 17.0125 34C22.4439 34 25.1253 27.3988 21.2326 23.6112L17.0125 19.5053L12.7925 23.6112Z" fill="#C3E7FA"/>
<path d="M10.3888 21.2321C6.60116 25.1249 0 22.4434 0 17.012C0 11.5807 6.60116 8.89919 10.3888 12.792L14.4947 17.012L10.3888 21.2321Z" fill="#C3E7FA"/>
<path d="M23.6112 21.2077C27.3988 25.1005 34 22.419 34 16.9876C34 11.5562 27.3988 8.87477 23.6112 12.7676L19.5053 16.9876L23.6112 21.2077Z" fill="#C3E7FA"/>
</svg>
